<svg xmlns="http://www.w3.org/2000/svg" xmlns:xlink="http://www.w3.org/1999/xlink" viewBox="0 0 404.55 608.04"><defs><radialGradient id="q" gradientUnits="userSpaceOnUse" cy="490.64" cx="1272" gradientTransform="matrix(-.7255 .202 -.9088 -3.266 2653.3 2171.2)" r="110.44"><stop stop-color="#e6e6e6" offset="0"/><stop stop-color="#f60" stop-opacity="0" offset="1"/></radialGradient><radialGradient id="r" gradientUnits="userSpaceOnUse" cy="523.29" cx="1322.4" gradientTransform="matrix(-1.5243 .8674 -1.0015 -1.76 4025.6 335.25)" r="70.37"><stop stop-color="#fff" offset="0"/><stop stop-color="#fff" stop-opacity="0" offset="1"/></radialGradient><radialGradient id="s" xlink:href="#a" gradientUnits="userSpaceOnUse" cy="568.97" cx="1483" gradientTransform="matrix(.878 -4.8833 3.3704 .606 -1737.8 7471.5)" r="56.99"/><linearGradient id="a"><stop stop-color="#fff" offset="0"/><stop stop-color="#fff" stop-opacity="0" offset="1"/></linearGradient><radialGradient id="t" xlink:href="#a" gradientUnits="userSpaceOnUse" cy="568.97" cx="1483" gradientTransform="matrix(.8584 -4.8863 2.8253 .5218 -1231.5 7549.7)" r="56.99"/><radialGradient id="u" gradientUnits="userSpaceOnUse" cy="388.15" cx="1268.6" gradientTransform="matrix(-2.297 -.8542 .932 -.8412 3805.6 1828.3)" r="31.01"><stop stop-color="#e6e6e6" offset="0"/><stop stop-color="#e6e6e6" stop-opacity="0" offset="1"/></radialGradient><filter id="f" color-interpolation-filters="sRGB"><feGaussianBlur stdDeviation="1"/></filter><radialGradient id="v" gradientUnits="userSpaceOnUse" cy="378.76" cx="1208.9" gradientTransform="matrix(-2.8156 -.9356 .976 -2.177 4241.9 2333.1)" r="31.75"><stop stop-color="#e6e6e6" offset="0"/><stop stop-color="#fff" stop-opacity="0" offset="1"/></radialGradient><filter id="g" color-interpolation-filters="sRGB"><feGaussianBlur stdDeviation=".87"/></filter><radialGradient id="w" gradientUnits="userSpaceOnUse" cy="375.59" cx="1147.8" gradientTransform="matrix(-2.5484 -1.2023 .8494 -1.3344 3752.4 2255.9)" r="29.73"><stop stop-color="#e6e6e6" offset="0"/><stop stop-color="#fff" stop-opacity="0" offset="1"/></radialGradient><filter id="h" color-interpolation-filters="sRGB"><feGaussianBlur stdDeviation=".83"/></filter><filter id="i" color-interpolation-filters="sRGB"><feGaussianBlur stdDeviation=".82"/></filter><radialGradient id="x" gradientUnits="userSpaceOnUse" cy="469.12" cx="1168.4" gradientTransform="matrix(-8.2875 -2.8006 .9378 -2.1626 10416 4756.1)" r="31.34"><stop stop-color="#ccc" offset="0"/><stop stop-color="#fff" stop-opacity="0" offset="1"/></radialGradient><filter id="j" color-interpolation-filters="sRGB"><feGaussianBlur stdDeviation="1.33"/></filter><radialGradient id="y" gradientUnits="userSpaceOnUse" cy="472.08" cx="1173.6" gradientTransform="matrix(-2.3296 1.5575 -1.1178 -3.5822 4617 426.92)" r="38.07"><stop stop-color="#6e3713" offset="0"/><stop stop-color="#6e3713" stop-opacity="0" offset="1"/></radialGradient><radialGradient id="z" gradientUnits="userSpaceOnUse" cy="384.06" cx="1148.4" gradientTransform="matrix(-1.9723 1.9246 -1.1456 -2.1713 4037.2 -866.94)" r="16.9"><stop stop-color="#6e3713" offset="0"/><stop stop-color="#6e3713" stop-opacity="0" offset="1"/></radialGradient><radialGradient id="A" gradientUnits="userSpaceOnUse" cy="361.4" cx="1200.2" gradientTransform="matrix(-.2897 2.6437 -2.3596 -.1017 2560.5 -2633.3)" r="16.85"><stop stop-color="#6e3713" offset="0"/><stop stop-color="#6e3713" stop-opacity="0" offset="1"/></radialGradient><radialGradient id="B" gradientUnits="userSpaceOnUse" cy="421.41" cx="1252.2" gradientTransform="matrix(1.3674 -1.7177 1.3735 1.6522 -902.3 1980.6)" r="21.68"><stop stop-color="#6e3713" offset="0"/><stop stop-color="#6e3713" stop-opacity="0" offset="1"/></radialGradient><radialGradient id="C" gradientUnits="userSpaceOnUse" cy="411.69" cx="1110.1" gradientTransform="matrix(-2.3087 1.614 -1.05 -2.7103 4312.5 -142.85)" r="16.33"><stop stop-color="#6e3713" offset="0"/><stop stop-color="#6e3713" stop-opacity="0" offset="1"/></radialGradient><radialGradient id="D" gradientUnits="userSpaceOnUse" cy="539.53" cx="1500.5" gradientTransform="matrix(-1.5078 -.0712 .0538 -1.1396 3673.9 1616.1)" r="101.3"><stop stop-color="#fff" offset="0"/><stop stop-color="#fff" stop-opacity="0" offset="1"/></radialGradient><linearGradient id="E" x1="1447.8" gradientUnits="userSpaceOnUse" y1="589.22" gradientTransform="translate(20 354)" x2="1411.6" y2="338.29"><stop stop-color="#fff" offset="0"/><stop stop-color="#fff" stop-opacity="0" offset="1"/></linearGradient><linearGradient id="F" x1="1529.8" xlink:href="#a" gradientUnits="userSpaceOnUse" y1="587.09" gradientTransform="matrix(.9086 0 0 1 153.11 366)" x2="1562.4" y2="516.38"/><radialGradient id="G" gradientUnits="userSpaceOnUse" cy="484.85" cx="1827.2" gradientTransform="matrix(1.888 1.152 -.8126 1.3317 -1501.4 -1907.1)" r="52.05"><stop stop-color="#f60" offset="0"/><stop stop-color="#f95" offset="1"/></radialGradient><linearGradient id="H" x1="1529.8" xlink:href="#a" gradientUnits="userSpaceOnUse" y1="587.09" gradientTransform="matrix(.9086 0 0 1 156.11 362)" x2="1562.4" y2="516.38"/><linearGradient id="I" x1="1323.1" gradientUnits="userSpaceOnUse" y1="434.61" gradientTransform="translate(20.016 360)" x2="1323.1" y2="486.11"><stop stop-color="#80b3ff" offset="0"/><stop stop-color="#80b3ff" stop-opacity="0" offset="1"/></linearGradient><linearGradient id="J" x1="1492.5" gradientUnits="userSpaceOnUse" y1="423.36" gradientTransform="translate(19.878 360)" x2="1505" y2="494.86"><stop stop-color="#80b3ff" offset="0"/><stop stop-color="#80b3ff" stop-opacity="0" offset="1"/></linearGradient><filter id="k" height="1.36" width="1.36" color-interpolation-filters="sRGB" y="-.18" x="-.18"><feGaussianBlur stdDeviation="5.26"/></filter><linearGradient id="K" x1="1269.6" gradientUnits="userSpaceOnUse" x2="1326.2" y1="697.75" y2="690.73"><stop stop-color="#06f" offset="0"/><stop stop-color="#06f" stop-opacity="0" offset="1"/></linearGradient><filter id="l" height="1.12" width="1.3" color-interpolation-filters="sRGB" y="-.06" x="-.15"><feGaussianBlur stdDeviation="2.95"/></filter><filter id="m" height="1.13" width="1.33" color-interpolation-filters="sRGB" y="-.07" x="-.17"><feGaussianBlur stdDeviation="3.54"/></filter><radialGradient id="L" gradientUnits="userSpaceOnUse" cy="584.29" cx="1518.5" gradientTransform="matrix(-1.9635 -.227 .099 -.8565 4475.3 1823.4)" r="41.64"><stop stop-color="#59f" offset="0"/><stop stop-color="#59f" stop-opacity="0" offset="1"/></radialGradient><radialGradient id="M" gradientUnits="userSpaceOnUse" cy="614.67" cx="1381.7" gradientTransform="matrix(-2.6138 .197 -.075 -.997 4999.3 1315.4)" r="39.5"><stop stop-color="#59f" offset="0"/><stop stop-color="#59f" stop-opacity="0" offset="1"/></radialGradient><linearGradient id="N" x1="1337.8" xlink:href="#a" gradientUnits="userSpaceOnUse" y1="795.68" gradientTransform="matrix(.9137 0 0 .871 136.27 450.63)" x2="1336.3" y2="720.02"/><radialGradient id="O" xlink:href="#a" gradientUnits="userSpaceOnUse" cy="777.37" cx="1344.2" gradientTransform="matrix(-9.6672 .0102 -.0005 -.4566 14360 1469.4)" r="60.02"/><linearGradient id="P" x1="1281.5" xlink:href="#b" gradientUnits="userSpaceOnUse" y1="772.86" gradientTransform="matrix(.9137 0 0 .871 136.27 450.63)" x2="1298.5" y2="783.86"/><linearGradient id="b"><stop stop-color="#ccc" offset="0"/><stop stop-color="#ccc" stop-opacity="0" offset="1"/></linearGradient><linearGradient id="Q" x1="1392" xlink:href="#b" gradientUnits="userSpaceOnUse" y1="768.86" gradientTransform="matrix(.9137 0 0 .871 136.27 450.63)" x2="1376" y2="783.36"/><filter id="n" color-interpolation-filters="sRGB"><feGaussianBlur stdDeviation=".57"/></filter><radialGradient id="R" xlink:href="#c" gradientUnits="userSpaceOnUse" cy="785.71" cx="1342.5" gradientTransform="matrix(.0025 -.9612 1.6287 .0043 79.585 2431.5)" r="57.57"/><linearGradient id="c"><stop stop-color="#fff" offset="0"/><stop stop-color="#999" offset="1"/></linearGradient><linearGradient id="S" x1="1337.8" xlink:href="#a" gradientUnits="userSpaceOnUse" y1="795.68" gradientTransform="matrix(.9137 0 0 .871 298.27 450.63)" x2="1336.3" y2="720.02"/><radialGradient id="T" xlink:href="#a" gradientUnits="userSpaceOnUse" cy="777.37" cx="1344.2" gradientTransform="matrix(-9.6672 .0102 -.0005 -.4566 14522 1469.4)" r="60.02"/><linearGradient id="U" x1="1281.5" xlink:href="#b" gradientUnits="userSpaceOnUse" y1="772.86" gradientTransform="matrix(.9137 0 0 .871 298.27 450.63)" x2="1298.5" y2="783.86"/><linearGradient id="V" x1="1392" xlink:href="#b" gradientUnits="userSpaceOnUse" y1="768.86" gradientTransform="matrix(.9137 0 0 .871 298.27 450.63)" x2="1376" y2="783.36"/><radialGradient id="W" xlink:href="#c" gradientUnits="userSpaceOnUse" cy="785.71" cx="1342.5" gradientTransform="matrix(.0025 -.9612 1.6287 .0043 241.58 2431.5)" r="57.57"/><radialGradient id="X" xlink:href="#a" gradientUnits="userSpaceOnUse" cy="135.67" cx="1445.4" gradientTransform="matrix(-3.5692 2.4282 -5.058 -7.4356 8094.5 -568.28)" r="33.96"/><radialGradient id="Y" xlink:href="#d" gradientUnits="userSpaceOnUse" cy="-105.5" cx="1524.8" gradientTransform="matrix(-.494 .5303 -.4388 -.4088 3662.8 -643.88)" r="65.95"/><linearGradient id="d"><stop stop-color="#ffd5d5" offset="0"/><stop stop-color="#ff7f2a" offset="1"/></linearGradient><radialGradient id="Z" xlink:href="#a" gradientUnits="userSpaceOnUse" cy="135.67" cx="1445.4" gradientTransform="matrix(-3.5692 2.4282 -5.058 -7.4355 8986.9 -2186.5)" r="33.96"/><radialGradient id="aa" xlink:href="#d" gradientUnits="userSpaceOnUse" cy="-112.52" cx="1504.8" gradientTransform="matrix(-.7064 .1623 -.1343 -.5845 4217.8 -134.31)" r="65.95"/><radialGradient id="ab" gradientUnits="userSpaceOnUse" cy="211.23" cx="467.58" gradientTransform="matrix(.1956 3.3384 -21.255 1.244 7496.1 -1445.1)" r="172.15"><stop stop-color="#fff" offset="0"/><stop stop-color="gray" offset="1"/></radialGradient><filter id="o" height="1.23" width="1.25" color-interpolation-filters="sRGB" y="-.12" x="-.12"><feGaussianBlur stdDeviation="6.73"/></filter><radialGradient id="ac" gradientUnits="userSpaceOnUse" cy="-91.67" cx="1401.4" gradientTransform="matrix(-2.0518 .7864 -.8193 -2.1376 4200.6 -1393.5)" r="65.67"><stop stop-color="#fff" offset="0"/><stop stop-color="#fff" stop-opacity="0" offset="1"/></radialGradient><radialGradient id="ad" gradientUnits="userSpaceOnUse" cy="-63.34" cx="1377.1" gradientTransform="matrix(1.4693 .744 -.673 1.3292 -690.89 -1009.6)" r="65.67"><stop stop-color="#fff" offset="0"/><stop stop-color="#fff" stop-opacity="0" offset="1"/></radialGradient><filter id="p" color-interpolation-filters="sRGB"><feGaussianBlur stdDeviation="1.83"/></filter><radialGradient id="ae" gradientUnits="userSpaceOnUse" cy="319.35" cx="1415.5" gradientTransform="matrix(-1.0297 .0976 -.0363 -.3824 4559.9 468.79)" r="51"><stop stop-color="#d38d5f" offset="0"/><stop stop-color="#520" offset="1"/></radialGradient><linearGradient id="af" x1="1387.2" gradientUnits="userSpaceOnUse" y1="285.92" gradientTransform="translate(1675.3 167.03)" x2="1414.8" y2="298.36"><stop stop-color="#502d16" offset="0"/><stop stop-color="#fff" offset="1"/></linearGradient><radialGradient id="ag" gradientUnits="userSpaceOnUse" cy="284.04" cx="1384.8" gradientTransform="matrix(-2.263 .5573 -.2967 -1.205 6234.6 256.48)" r="4.41"><stop stop-color="#afc6e9" offset="0"/><stop stop-color="#e6e6e6" stop-opacity="0" offset="1"/></radialGradient><radialGradient id="ah" gradientUnits="userSpaceOnUse" cy="284.04" cx="1384.8" gradientTransform="matrix(-2.263 .5573 -.2967 -1.205 6268.3 256.59)" r="4.41"><stop stop-color="#afc6e9" offset="0"/><stop stop-color="#e6e6e6" stop-opacity="0" offset="1"/></radialGradient><filter id="e" color-interpolation-filters="sRGB"><feGaussianBlur stdDeviation="1.31"/></filter></defs><g opacity=".24" filter="url(#e)" stroke="#000" transform="translate(-3140.302 -9.545) scale(3.681)"><g transform="matrix(.2265 0 0 .2265 596.19 -97.402)"><path d="M1369.2 782.88c15.73 9.17 26.92 22.36 33.28 37.6l.1.23c-26.24 50.52-144.7 62.16-209.32 38.88-20.35-11.86-8.32-55.84-5-68.68 3.87-15 45.68 27.7 74.87 19 41.68-12.4 43.8-38.27 106.08-27.02z"/><path opacity=".19" d="M1369.2 782.88c15.73 9.17 26.92 22.36 33.28 37.6l.1.23c-26.24 50.52-144.7 62.16-209.32 38.88-20.35-11.86-8.32-55.84-5-68.68 3.87-15 45.68 27.7 74.87 19 41.68-12.4 43.8-38.27 106.08-27.02z"/><path d="M1475.2 514.06c.3-.16.16.37.28.02 9.45-27.42 32.9-14.48 34.64 9.07.02.34.23 1.16.43.92 31.24-26.44 41.5 24.1 24.07 46.7-7.22 20.97-20.2 33.8-26.95 36.44-12.54 4.94-43.96 15.74-57.88-14.13-5.74-7.6-10.1-15.22-13.52-23.9-14.87-20.1-4.47-46 11.04-35.04.37.26.23.55.24.06-12.6-23.54 25.72-36.95 27.64-20.14z" transform="matrix(.829 -.1526 .128 .9883 -103.805 485.577)"/><path opacity=".99" d="M1185.1 768.53c.23-.2.2.34.24-.02 4.32-28.54 25.42-19.32 29.88 3.7.06.3.33 1.1.47.83 22.5-30.9 37.48 17.5 25.92 42.47-3.3 21.84-12.43 36.5-17.68 40.14-9.76 6.78-34.43 22.24-49.8-5.15-5.72-6.65-10.3-13.5-14.25-21.56-14.92-17.6-9.6-44.78 4.65-36.32.35.2.27.5.2.02-13.44-21.33 16.6-40.43 20.35-24.1z"/><path opacity=".52" filter="url(#f)" d="M1272 457.2c-8.12 10.72-18.76 4.84-34.55-8.13s-21.76-32.17-12.82-42.4c1.98-2.26 1.9-5.4 6.8-7.6 11.83-5.34 29.6-10.22 41.93-.42 16.82 13.34 6.76 47.83-1.36 58.55z" transform="matrix(.4344 -.2188 .2132 .6015 594.453 804.22)"/><path opacity=".52" filter="url(#g)" d="M1174.1 391.87c-5.3-4.04-1.48-6.2 1.87-14.02 2.08-4.86.82-8.2 2.27-10.43 9.74-14.94 23.44-17.74 33.44-16.9 4 .34 6.58 3.55 8.82 4.78 10.77 5.88 22.28 36.32 7.32 46.23-14.35 9.5-44.5-2.63-53.72-9.66z" transform="matrix(.4344 -.2188 .2132 .6015 594.453 804.22)"/><path opacity=".67" filter="url(#h)" d="M1158.9 352.47c14.16 1.98 21.56 6.75 16.98 23.63-3.66 13.56-22.35 29.27-36.5 27.3-3.88-.55-8.96-1.27-10.42-4.6-2.05-4.64-6.65-10.26-8.4-11.34-5.1-3.16-2.05-11.08.22-16.4 5.56-13.08 23.96-20.57 38.12-18.6z" transform="matrix(.4344 -.2188 .2132 .6015 594.453 804.22)"/><path opacity=".45" filter="url(#i)" d="M1090.7 385.03c11.43-7.17 22.54-6.37 33.17 5.9s5.02 24.05-6.4 31.22c-11.44 7.17-19.63 23.88-30.26 11.6s-7.93-41.55 3.5-48.72z" transform="matrix(.4344 -.2188 .2132 .6015 594.453 804.22)"/><path opacity=".46" filter="url(#j)" d="M1168.1 427.35c24.8-2.32 44.12 8.9 52.1 36.22 7.98 27.34-12.17 39.95-36.96 42.27-24.8 2.32-42.64 2.77-50.62-24.56-7.98-27.34 10.7-51.6 35.48-53.93z" transform="matrix(.4344 -.2188 .2132 .6015 594.453 804.22)"/><path d="M1196.2 809.37c6.8-5.8 13.92-3.65 20.06 8.82 6.14 12.47 2.13 22.66-4.66 28.44-6.78 5.8-11.84 9.34-17.98-3.14-6.13-12.48-4.2-28.34 2.6-34.13zM1168.5 774.63c1.65-4.14 4.3-5.32 7.8-2.25 3.5 3.07 4.97 8.88 3.3 13.02-1.65 4.14-4.8 5.7-8.3 2.63-3.5-3.08-4.47-9.26-2.8-13.4zM1197.55 759.05c3.23-1.9 5.93-.3 7.37 5.77 1.44 6.07 0 12.5-3.22 14.4-3.23 1.9-6.5.12-7.95-5.94s.57-12.32 3.8-14.23zM1238.3 793.03c-.8 4.18-3.58 5.64-8.42 3.1s-8.06-7.97-7.24-12.14c.83-4.2 6.1-9.7 10.93-7.16 4.83 2.54 5.57 12 4.74 16.2zM1156.02 801.37c1.33-4.3 3.9-5.78 7.6-3.1 3.72 2.67 3.9 7.72 2.57 12.02-1.34 4.3-2.44 7.22-6.16 4.54-3.7-2.67-5.35-9.17-4.02-13.47zM1404.9 754.87c26.45-5.38 52.13-2.3 74.68 7.47l.35.16c56.48 25.65 79.78 90.35 92.68 145.3 10.32 78.9-43.94 126.96-118.1 142.04-74.17 15.07-141.2-28.96-151.52-107.86-10.3-78.9 23-139.85 101.93-187.1z"/><path d="M1414.3 773.66c19.65-4.13 38.72-1.77 55.47 5.75l.26.13c41.97 19.72 59.27 69.48 68.85 111.74 7.66 60.68-32.65 97.65-87.74 109.25-55.1 11.6-104.9-22.28-112.56-82.96-7.66-60.68 17.1-107.55 75.72-143.9z"/><path d="M1414.3 773.66c19.65-4.13 38.72-1.77 55.47 5.75l.26.13c41.97 19.72 59.27 69.48 68.85 111.74 7.66 60.68-32.65 97.65-87.74 109.25-55.1 11.6-104.9-22.28-112.56-82.96-7.66-60.68 17.1-107.55 75.72-143.9z"/><path d="M1414.3 773.66c19.65-4.13 38.72-1.77 55.47 5.75l.26.13c41.97 19.72 59.27 69.48 68.85 111.74 7.66 60.68-32.65 97.65-87.74 109.25-55.1 11.6-104.9-22.28-112.56-82.96-7.66-60.68 17.1-107.55 75.72-143.9z"/><path d="M1483 781.35c-2.54-6.37-6.44-6.54 4.04-18.66.05-.07-9.1 2.7-9.03 2.63 53.17 2.82 105.08 65.87 104.1 152-2.17 23.43-30.2 26.12-42.4 28.45-14.26 2.72-16.7-25.85-9.92-55.43 8.3-36.23-15.26-66.7-46.78-109z"/><path d="M1557.4 892.37c20.45 7.5 28.87 26.64 19.2 57.7-9.66 31.07-27.52 41.72-47.97 34.2s-39.45-19.95-29.8-51c9.68-31.08 38.12-48.4 58.57-40.9z"/><path d="M1557.4 892.37c20.45 7.5 28.87 26.64 19.2 57.7-9.66 31.07-27.52 41.72-47.97 34.2s-39.45-19.95-29.8-51c9.68-31.08 38.12-48.4 58.57-40.9z"/><path d="M1490 787.35c-9.98-13.9 16.4-22.23-5-16.02 53.17 2.82 107.33 73.62 96.84 150-2.17 23.43-22.93 28.12-35.14 30.45-14.26 2.72-16.7-25.85-9.92-55.43 8.3-36.23-15.26-66.7-46.78-109z"/><path d="M1490 787.35c-9.98-13.9 16.4-22.23-5-16.02 53.17 2.82 103.33 69.12 98.1 151-2.18 23.43-24.2 27.12-36.4 29.45-14.26 2.72-12.7-25.2-9.92-55.43 3.3-35.98-15.26-66.7-46.78-109z"/><path d="M1560.4 888.37c20.45 7.5 28.87 26.64 19.2 57.7-9.66 31.07-27.52 41.72-47.97 34.2s-39.45-19.95-29.8-51c9.68-31.08 38.12-48.4 58.57-40.9z"/><path d="M1560.4 888.37c20.45 7.5 28.87 26.64 19.2 57.7-9.66 31.07-27.52 41.72-47.97 34.2s-39.45-19.95-29.8-51c9.68-31.08 38.12-48.4 58.57-40.9z"/><path fill-rule="evenodd" d="M1330.3 919.32c-7.63 6.95-14.3 11.8-19.3 17.46-8.3 9.36-7.67 14.1-8.76 33.1-.76 51.6 2.98 105.38 5.72 154.75 26.72 15.5 49.95 19.42 88.68 15.05 13.1-18.9 6.67-65.92 19.75-75.72.82-1.02 3.96-3.4 5.13-4.17 5.16-3.45 11.16-3.12 18.63-2.74 17.23.87 18.43 5.83 24.4 19.34 5.82 19.72 10.58 56 2.1 69.12 17.92-2.28 86.6 9.36 88.36-1.02 9.64-24.5 6.73-46.96 10.56-74.2 4.6-45.6 3.86-41.28 5.45-57.06 1.58-15.55 7.85-41.86 8.47-65.35-8.43-17.55-37-21-39-43.25-2.67-35.2-9.7-84.1-15.85-118.65-.55-12.6-27.35-15.64-22.3-2.92.65 1.62 1.88 2.9 2.3 5.4 3.92 22.3 4.18 56.5 5.23 79 1.93 17.85-5.7 12.82-38.1 14.23-36.98.2-68.14.77-105.1.96-13.78.72-12.85-7.7-13.13-17.68-.54-19.2 1.94-52 1-76.7-6.48-1.92-15.45-4.64-20.7-6.16"/><path d="M1302.9 1132.4c2.43-38.47 115.4-46.65 108.96 7.18-.15 2.86 1.58 13.88-3.22 14.75-17.37 3.16-98.82 1.7-102.9-.07-4.7-2.02-3.06-14.23-2.84-21.86zM1506.5 914.27c-36.8-.74-110.64 3.7-144.93-3.74-5.33-1.16-4.2-3.07-3.15-5.23-2.5-1.84 109.07-7.95 148.72.28 9.54 1.98 13.44 5.35-.64 8.7z"/><path d="M1506.5 910.27c-36.8-.26-110.64 1.28-144.93-1.3-5.33-.4-4.2-1.06-3.15-1.8-2.5-.65 109.07-2.76 148.72.1 9.54.68 13.44 1.84-.64 3z"/><path d="M1516 908.98c.17 4.48 2.54 13.27.37 17.66-.34.7-1 .6-1.77.56-.6.36-4-12.95-1.6-18 .57-1.23 1.7-1.82 3-.22z"/><path opacity=".74" fill-rule="evenodd" d="M1353 856h-21.34c.73-24.8 1.55-49.6 2.18-74.4 6.24 3.07 12.7 5.6 20.86 8.4-.02 20.1-1.52 44.07-1.7 66z"/><path fill-rule="evenodd" d="M1509.2 847.6c-1.2-28.93-2.27-56.83-6.94-65.35l13.75-6.52c.38.54 7.23 1.66 8.25 7.2 2.7 14.7 7.6 45.56 10.08 65.33l-25.13-.65z"/><path opacity=".36" d="M1382.5 762.4c-.38-3.92 4.5-44.8 11.32-56.47 2.3-3.9 2.7-6.24 6.5-7.97 9.2-4.87 24.75-5.73 35.2.22 2.25 1.8 5.7 5.78 8.82 12.62 1.74 3.8 9.52 42.5 7.47 44.3" transform="matrix(1.3042 0 0 1.1353 -411.47 258.61)" filter="url(#k)" stroke-width="2.58"/><path opacity=".47" d="M1330.6 748.44c-11-1.56-38.08 5.4-41.03 9.82-.03.03-.34-4.66-.67-8.44-.18-2.13-.34-.83-.6-5.43-1.54-26.46-3.06-80.6-3.77-106.72-.02-.84 45.83 1.1 45.8.27" fill-rule="evenodd" transform="matrix(1.0017 -.0054 .0056 .9775 13.305 384.48)" filter="url(#l)"/><path opacity=".53" d="M1331.6 751.34c-11-1.56-34.14 8.2-38.42 14-.92 1.25-1.1-9.64-1.4-13.42-.2-2.13-.37-5.62-.34-10.22.08-13.42-7.17-84.05-8.93-103.66-.07-.84 47.86.75 47.83-.08" fill-rule="evenodd" transform="matrix(-1.0458 -.0054 -.0058 .9773 2915.5 382.49)" filter="url(#m)"/><path d="M1545.6 915.66c8.22 14.12 28.46 18.25 33.93 31.87.15.35-1.47 16.77-2.1 21.13-2.53 17.1-3.57 23.25-4.27 29.1-.3 2.54-27.03-2.1-27.34-2.07-23.7 1.07-47.73-1.72-49.48-26.17-1.75-24.46 25.57-52.8 49.26-53.87z"/><path opacity=".5" d="M1545.6 915.66c8.22 14.12 28.46 18.25 33.93 31.87.15.35-1.47 16.77-2.1 21.13-2.53 17.1-3.57 23.25-4.27 29.1-.3 2.54-27.03-2.1-27.34-2.07-23.7 1.07-47.73-1.72-49.48-26.17-1.75-24.46 25.57-52.8 49.26-53.87z"/><path d="M1329.9 919.2c-9.7 10.05-23.78 17.9-26.2 30.72-.6 3.04-1.5 15.6-1.35 18.3 1.08 18.36-6.4 29.27 10.37 29.9 2.52.1 18.6-.14 18.9-.13 23.4 1.07 47.17-1.7 48.9-26.17 1.73-24.46-27.2-51.55-50.62-52.63z"/><path opacity=".13" d="M1329.9 919.2c-9.7 10.05-23.78 17.9-26.2 30.72-.6 3.04-1.5 15.6-1.35 18.3 1.08 18.36-6.4 29.27 10.37 29.9 2.52.1 18.6-.14 18.9-.13 23.4 1.07 47.17-1.7 48.9-26.17 1.73-24.46-27.2-51.55-50.62-52.63z"/><path opacity=".33" d="M1302.9 1132.4c2.43-38.47 115.4-46.65 108.96 7.18-.15 2.86 1.58 13.88-3.22 14.75-17.37 3.16-98.82 1.7-102.9-.07-4.7-2.02-3.06-14.23-2.84-21.86z"/><path d="M1302.9 1132.4c2.43-38.47 115.4-46.65 108.96 7.18-.15 2.86 1.58 13.88-3.22 14.75-17.37 3.16-98.82 1.7-102.9-.07-4.7-2.02-3.06-14.23-2.84-21.86z"/><path d="M1302.9 1132.4c2.43-38.47 115.4-46.65 108.96 7.18-.15 2.86 1.58 13.88-3.22 14.75-17.37 3.16-98.82 1.7-102.9-.07-4.7-2.02-3.06-14.23-2.84-21.86z"/><path d="M1302.9 1132.4c2.43-38.47 115.4-46.65 108.96 7.18-.15 2.86 1.58 13.88-3.22 14.75-17.37 3.16-98.82 1.7-102.9-.07-4.7-2.02-3.06-14.23-2.84-21.86z"/><path filter="url(#n)" transform="matrix(.9618 0 0 1.0354 71.07 331.83)" d="M1288.2 759.1c22.32-19.68 72.6-23 96-4.24"/><path stroke-width="3.53" d="M1342.8 1105.1l5.1 18.08"/><path stroke-width="3" d="M1372.1 1122.6l-23.93-1.95 25.17-4.74-28.94-8.6"/><path stroke-width="3" d="M1373.2 1108.8l-28.82 5.05 25.6 8.04"/><path stroke-width="3.54" d="M1373.7 1106.1l-2.78 18.32"/><path stroke-width="2.94" d="M1364.1 1106c-.28-.1 5.66.5 15.25-.65 5.14-.7 2.1-4.22-3.15-5.03-8.75-1.3-14.76 1.52-16.16 2.92-1 1.23 1.04 2.06 4.06 2.76z"/><path stroke-width="2.14" d="M1354.4 1102.1c.27.12-5.57-1.35-15.07-1.98-5.1-.28-2.25 3.15 2.9 4.7 8.6 2.5 14.64 1.17 16.08.24 1.04-.86-.95-1.88-3.9-2.96z"/><path stroke-width="2.02" d="M1336.9 1089.8l21.9 12.75 16.63-11.18"/><path stroke-width="1.03" fill-rule="evenodd" d="M1412.6 1154.3l-110.7-.24c-5.88-5.46-4.8-16.9 2.06-20.95 45.87 1.46 65.7 2.8 102.7 0 5.25.27 7.94 1.8 9.05 4.15 1.54 8.33-.33 16.04-3.1 17.05z"/><rect transform="scale(1 -1)" rx="53.17" ry="0" height="7.87" width="117.26" y="-1148.5" x="1298.5"/><path d="M1464.9 1132.4c2.43-38.47 115.4-46.65 108.96 7.18-.15 2.86 1.58 13.88-3.22 14.75-17.37 3.16-98.82 1.7-102.9-.07-4.7-2.02-3.06-14.23-2.84-21.86z"/><path opacity=".33" d="M1464.9 1132.4c2.43-38.47 115.4-46.65 108.96 7.18-.15 2.86 1.58 13.88-3.22 14.75-17.37 3.16-98.82 1.7-102.9-.07-4.7-2.02-3.06-14.23-2.84-21.86z"/><path d="M1464.9 1132.4c2.43-38.47 115.4-46.65 108.96 7.18-.15 2.86 1.58 13.88-3.22 14.75-17.37 3.16-98.82 1.7-102.9-.07-4.7-2.02-3.06-14.23-2.84-21.86z"/><path d="M1464.9 1132.4c2.43-38.47 115.4-46.65 108.96 7.18-.15 2.86 1.58 13.88-3.22 14.75-17.37 3.16-98.82 1.7-102.9-.07-4.7-2.02-3.06-14.23-2.84-21.86z"/><path d="M1464.9 1132.4c2.43-38.47 115.4-46.65 108.96 7.18-.15 2.86 1.58 13.88-3.22 14.75-17.37 3.16-98.82 1.7-102.9-.07-4.7-2.02-3.06-14.23-2.84-21.86z"/><path filter="url(#n)" transform="matrix(.9618 0 0 1.0354 233.07 331.83)" d="M1288.2 759.1c22.32-19.68 72.6-23 96-4.24"/><path stroke-width="3.53" d="M1504.8 1105.1l5.1 18.08"/><path stroke-width="3" d="M1534.1 1122.6l-23.93-1.95 25.17-4.74-28.94-8.6"/><path stroke-width="3" d="M1535.2 1108.8l-28.82 5.05 25.6 8.04"/><path stroke-width="3.54" d="M1535.7 1106.1l-2.78 18.32"/><path stroke-width="2.94" d="M1526.1 1106c-.28-.1 5.66.5 15.25-.65 5.14-.7 2.1-4.22-3.15-5.03-8.75-1.3-14.76 1.52-16.16 2.92-1 1.23 1.04 2.06 4.06 2.76z"/><path stroke-width="2.14" d="M1516.4 1102.1c.27.12-5.57-1.35-15.07-1.98-5.1-.28-2.25 3.15 2.9 4.7 8.6 2.5 14.64 1.17 16.08.24 1.04-.86-.95-1.88-3.9-2.96z"/><path stroke-width="2.02" d="M1498.9 1089.8l21.9 12.75 16.63-11.18"/><path stroke-width="1.03" fill-rule="evenodd" d="M1574.6 1154.3l-110.7-.24c-5.88-5.46-4.8-16.9 2.06-20.95 45.87 1.46 65.7 2.8 102.7 0 5.25.27 7.94 1.8 9.05 4.15 1.54 8.33-.33 16.04-3.1 17.05z"/><rect ry="0" rx="53.17" transform="scale(1 -1)" height="7.87" width="117.26" y="-1148.5" x="1460.5"/></g><g transform="matrix(.2225 0 0 .2225 235.4 -20.12)"><rect transform="rotate(-36.498)" rx="65.96" ry="59.27" height="118.54" width="131.92" y="1867.4" x="2192.1"/><rect transform="rotate(-36.498)" rx="33.96" ry="30.52" height="61.03" width="67.92" y="1902.4" x="2223.1"/><rect transform="rotate(-36.498)" rx="33.96" ry="30.52" height="61.03" width="67.92" y="1902.2" x="2223.4"/><path opacity=".66" d="M2925.9 158.1c-29.38 21.73-37.3 60.44-17.76 86.84s58.9 30.17 88.26 8.43 37.3-60.5 17.77-86.9c-19.53-26.38-58.9-30.12-88.27-8.38zm20.07 28.37c15.12-11.2 35.4-9.25 45.46 4.34s5.96 33.54-9.16 44.73c-15.13 11.2-35.37 9.26-45.43-4.33s-6-33.54 9.13-44.73z"/><rect transform="rotate(-2.405)" rx="65.96" ry="59.27" height="118.54" width="131.92" y="249.22" x="3084.5"/><rect transform="rotate(-2.405)" rx="33.96" ry="30.52" height="61.03" width="67.92" y="284.23" x="3115.5"/><rect transform="rotate(-2.405)" rx="33.96" ry="30.52" height="61.03" width="67.92" y="283.98" x="3115.7"/><path opacity=".66" d="M3158.1 116.8c-36.5 1.53-64.77 29.16-63.4 61.97 1.38 32.8 31.87 58 68.37 56.46 36.5-1.54 64.8-29.2 63.43-62-1.38-32.8-31.9-57.96-68.4-56.43zm.7 34.75c18.8-.8 34.52 12.2 35.23 29.08.7 16.9-13.86 31.1-32.66 31.9-18.8.8-34.48-12.16-35.2-29.05-.7-16.9 13.84-31.14 32.64-31.93z"/><path d="M3047.5 168.35c34.6-7.14 68.55-5.3 98.7 3.76.14.06.3.1.46.15 15 4.56 29.04 10.9 41.74 18.85 33.12 20.7 57.12 52.12 65.04 90.5 17.08 82.76-47.27 165.5-144.28 185.52-97 20.02-188.86-30.5-205.94-113.25-17.08-82.76 47.26-165.5 144.28-185.52z"/><path d="M3028.6 343.3c52.67 18.55 87.2 2.9 131.15-7.97 51.76-12.8 84.5 1.64 92.58 5.68-13.12 54.55-64.9 116.75-162.22 129-97.33 12.22-163.22-43.94-178.6-85.96-15.36-42.02 43.03-58.5 117.1-40.74z"/><path opacity=".43" d="M1338.5-113.48c9.88-10.84 37.3-10 46.35-2.8 5-13.8 19.33-20.26 25.54-20.42 10.9-.28 23.86 6.05 30.06 11.63 34.3 30.85 20.62 89.65-10.48 105.12-20.96 10.43-56.55 39.77-67.45 5.5-8.78-27.6-52.84-66.87-24.03-99.03z" filter="url(#o)" transform="matrix(.9872 -.0415 .043 1.0263 1715.1 415.44)"/><path d="M3030.23 243.7c9.42-11.25 31.08-10.35 43.1 6.1-1.17-20.6 17.6-30.03 23.78-30.46 10.9-.74 21.02-.86 33.1 11 26.07 25.53 27.9 76.12-2.47 106.3-16.45 16.32-46.7 33.6-72.75 8.04s-52.18-67.65-24.75-101z"/><path d="M3030.23 243.7c9.42-11.25 31.08-10.35 43.1 6.1-1.17-20.6 17.6-30.03 23.78-30.46 10.9-.74 21.02-.86 33.1 11 26.07 25.53 27.9 76.12-2.47 106.3-16.45 16.32-46.7 33.6-72.75 8.04s-52.18-67.65-24.75-101z"/><path opacity=".72" d="M3030.23 243.7c9.42-11.25 31.08-10.35 43.1 6.1-1.17-20.6 17.6-30.03 23.78-30.46 10.9-.74 21.02-.86 33.1 11 26.07 25.53 27.9 76.12-2.47 106.3-16.45 16.32-46.7 33.6-72.75 8.04s-52.18-67.65-24.75-101z"/><rect opacity=".37" transform="rotate(-2.404 3140.168 -39987.53)" rx="178.8" ry="44.25" height="44.25" filter="url(#p)" width="102" y="298.61" x="1367.5"/><rect transform="rotate(-2.405)" rx="35.63" ry="24.88" height="24.88" width="20.33" y="440.52" x="3052.3"/><rect transform="rotate(-2.405)" rx="35.63" ry="24.88" height="24.88" width="20.33" y="438.4" x="3084.5"/><rect transform="rotate(-2.405)" rx="178.8" ry="41" height="41" width="102" y="463.4" x="3038.3"/><rect transform="rotate(-2.405)" rx="35.63" ry="24.88" height="24.88" width="20.33" y="440.52" x="3052.3"/><rect opacity=".96" transform="rotate(-6.8)" rx="12.9" ry="9.01" height="9.01" width="7.36" y="682.31" x="3014.2"/><rect opacity=".96" ry="9.01" rx="12.9" transform="rotate(-6.8)" height="9.01" width="7.36" y="682.42" x="3047.9"/><path stroke-width="5" d="M3100.9 438.28c1.52 15.55 18.33 14.92 18.63-1.3"/></g></g><g transform="matrix(.834 0 0 .834 -948.186 -370.458)"><path fill="#f60" d="M1369.2 782.88c15.73 9.17 26.92 22.36 33.28 37.6l.1.23c-26.24 50.52-144.7 62.16-209.32 38.88-20.35-11.86-8.32-55.84-5-68.68 3.87-15 45.68 27.7 74.87 19 41.68-12.4 43.8-38.27 106.08-27.02z"/><path opacity=".19" fill="url(#q)" d="M1369.2 782.88c15.73 9.17 26.92 22.36 33.28 37.6l.1.23c-26.24 50.52-144.7 62.16-209.32 38.88-20.35-11.86-8.32-55.84-5-68.68 3.87-15 45.68 27.7 74.87 19 41.68-12.4 43.8-38.27 106.08-27.02z"/><g fill="#ccc"><path fill="#ccc" d="M1185 768.55c.24-.2.2.34.25-.02 4.32-28.55 25.42-19.33 29.88 3.68.06.33.33 1.1.47.85 22.52-30.9 37.5 17.5 25.93 42.47-3.3 21.84-12.43 36.5-17.68 40.14-9.76 6.78-34.43 22.24-49.8-5.15-5.7-6.63-10.3-13.5-14.25-21.54-14.9-17.6-9.6-44.78 4.66-36.32.35.2.27.5.2.02-13.43-21.33 16.6-40.43 20.35-24.1z"/><path opacity=".99" fill="url(#t)" d="M1644.9 540.24c.26-.17.13.37.24.02 8.62-27.56 28.07-15.23 28.96 8.2.02.32.17 1.13.34.9 26.97-27.1 34.38 23 19.15 45.92-6.6 21.08-17.86 34.17-23.6 36.97-10.7 5.22-37.43 16.74-48.44-12.68-4.63-7.43-8.13-14.9-10.8-23.47-12.04-19.68-2.64-45.72 10.16-35.2.3.26.18.55.2.07-10.04-23.14 22.57-37.43 23.78-20.73z" transform="rotate(-8.777 2902.478 3650.45)"/><path opacity=".52" filter="url(#f)" fill="url(#u)" d="M1272 457.2c-8.12 10.72-18.76 4.84-34.55-8.13s-21.76-32.17-12.82-42.4c1.98-2.26 1.9-5.4 6.8-7.6 11.83-5.34 29.6-10.22 41.93-.42 16.82 13.34 6.76 47.83-1.36 58.55z" transform="matrix(.4344 -.2188 .2132 .6015 594.453 804.22)"/><path opacity=".52" filter="url(#g)" fill="url(#v)" d="M1174.1 391.87c-5.3-4.04-1.48-6.2 1.87-14.02 2.08-4.86.82-8.2 2.27-10.43 9.74-14.94 23.44-17.74 33.44-16.9 4 .34 6.58 3.55 8.82 4.78 10.77 5.88 22.28 36.32 7.32 46.23-14.35 9.5-44.5-2.63-53.72-9.66z" transform="matrix(.4344 -.2188 .2132 .6015 594.453 804.22)"/><path opacity=".67" filter="url(#h)" fill="url(#w)" d="M1158.9 352.47c14.16 1.98 21.56 6.75 16.98 23.63-3.66 13.56-22.35 29.27-36.5 27.3-3.88-.55-8.96-1.27-10.42-4.6-2.05-4.64-6.65-10.26-8.4-11.34-5.1-3.16-2.05-11.08.22-16.4 5.56-13.08 23.96-20.57 38.12-18.6z" transform="matrix(.4344 -.2188 .2132 .6015 594.453 804.22)"/><path opacity=".45" filter="url(#i)" fill="#e6e6e6" d="M1090.7 385.03c11.43-7.17 22.54-6.37 33.17 5.9s5.02 24.05-6.4 31.22c-11.44 7.17-19.63 23.88-30.26 11.6s-7.93-41.55 3.5-48.72z" transform="matrix(.4344 -.2188 .2132 .6015 594.453 804.22)"/><path opacity=".46" filter="url(#j)" fill="url(#x)" d="M1168.1 427.35c24.8-2.32 44.12 8.9 52.1 36.22 7.98 27.34-12.17 39.95-36.96 42.27-24.8 2.32-42.64 2.77-50.62-24.56-7.98-27.34 10.7-51.6 35.48-53.93z" transform="matrix(.4344 -.2188 .2132 .6015 594.453 804.22)"/><path fill="url(#y)" d="M1350.8 542.3c7.6-4.67 14.3-1.48 18.46 11.8 4.17 13.26-1.34 22.7-8.94 27.4-7.6 4.68-13.13 7.4-17.3-5.85-4.15-13.27.2-28.65 7.78-33.34z" transform="rotate(-8.777 3013.634 1683.16)"/><path fill="url(#z)" d="M1328.7 503.75c2.27-3.84 5.08-4.6 8.07-1.03 2.98 3.57 3.55 9.53 1.28 13.37-2.27 3.83-5.64 4.9-8.62 1.32-2.98-3.57-3-9.83-.73-13.67z" transform="rotate(-8.777 3013.634 1683.16)"/><path fill="url(#A)" d="M1359.8 492.8c3.48-1.4 5.9.6 6.4 6.82.5 6.2-1.9 12.33-5.38 13.73-3.48 1.4-6.44-.87-6.94-7.08s2.44-12.1 5.92-13.48z" transform="rotate(-8.777 3013.634 1683.16)"/><path fill="url(#B)" d="M1394.9 532.6c-1.45 4-4.4 5-8.8 1.76s-6.76-9.1-5.3-13.1c1.45-4 7.5-8.65 11.88-5.4 4.4 3.25 3.67 12.73 2.22 16.73z" transform="rotate(-8.777 3013.634 1683.16)"/><path fill="url(#C)" d="M1312.3 528.27c1.97-4.05 4.73-5.12 8-1.9 3.25 3.2 2.66 8.22.7 12.27-2 4.05-3.52 6.77-6.78 3.56-3.27-3.2-3.9-9.88-1.92-13.93z" transform="rotate(-8.777 3013.634 1683.16)"/></g><path fill="#ff7f2a" d="M1404.9 754.87c26.45-5.38 52.13-2.3 74.68 7.47l.35.16c56.48 25.65 79.78 90.35 92.68 145.3 10.32 78.9-43.94 126.96-118.1 142.04-74.17 15.07-141.2-28.96-151.52-107.86-10.3-78.9 23-139.85 101.93-187.1z"/><path fill="#999" d="M1414.3 773.66c19.65-4.13 38.72-1.77 55.47 5.75l.26.13c41.97 19.72 59.27 69.48 68.85 111.74 7.66 60.68-32.65 97.65-87.74 109.25-55.1 11.6-104.9-22.28-112.56-82.96-7.66-60.68 17.1-107.55 75.72-143.9z"/><path fill="url(#D)" d="M1414.3 773.66c19.65-4.13 38.72-1.77 55.47 5.75l.26.13c41.97 19.72 59.27 69.48 68.85 111.74 7.66 60.68-32.65 97.65-87.74 109.25-55.1 11.6-104.9-22.28-112.56-82.96-7.66-60.68 17.1-107.55 75.72-143.9z"/><path fill="url(#E)" d="M1414.3 773.66c19.65-4.13 38.72-1.77 55.47 5.75l.26.13c41.97 19.72 59.27 69.48 68.85 111.74 7.66 60.68-32.65 97.65-87.74 109.25-55.1 11.6-104.9-22.28-112.56-82.96-7.66-60.68 17.1-107.55 75.72-143.9z"/><path fill="#f60" d="M1483 781.35c-2.54-6.37-6.44-6.54 4.04-18.66.05-.07-9.1 2.7-9.03 2.63 53.17 2.82 105.08 65.87 104.1 152-2.17 23.43-30.2 26.12-42.4 28.45-14.26 2.72-16.7-25.85-9.92-55.43 8.3-36.23-15.26-66.7-46.78-109z"/><path fill="#ccc" d="M1557.4 892.37c20.45 7.5 28.87 26.64 19.2 57.7-9.66 31.07-27.52 41.72-47.97 34.2s-39.45-19.95-29.8-51c9.68-31.08 38.12-48.4 58.57-40.9z"/><path fill="url(#F)" d="M1557.4 892.37c20.45 7.5 28.87 26.64 19.2 57.7-9.66 31.07-27.52 41.72-47.97 34.2s-39.45-19.95-29.8-51c9.68-31.08 38.12-48.4 58.57-40.9z"/><path fill="#f60" d="M1490 787.35c-9.98-13.9 16.4-22.23-5-16.02 53.17 2.82 107.33 73.62 96.84 150-2.17 23.43-22.93 28.12-35.14 30.45-14.26 2.72-16.7-25.85-9.92-55.43 8.3-36.23-15.26-66.7-46.78-109z"/><path fill="url(#G)" d="M1490 787.35c-9.98-13.9 16.4-22.23-5-16.02 53.17 2.82 103.33 69.12 98.1 151-2.18 23.43-24.2 27.12-36.4 29.45-14.26 2.72-12.7-25.2-9.92-55.43 3.3-35.98-15.26-66.7-46.78-109z"/><path fill="#ccc" d="M1560.4 888.37c20.45 7.5 28.87 26.64 19.2 57.7-9.66 31.07-27.52 41.72-47.97 34.2s-39.45-19.95-29.8-51c9.68-31.08 38.12-48.4 58.57-40.9z"/><path fill="url(#H)" d="M1560.4 888.37c20.45 7.5 28.87 26.64 19.2 57.7-9.66 31.07-27.52 41.72-47.97 34.2s-39.45-19.95-29.8-51c9.68-31.08 38.12-48.4 58.57-40.9z"/><path fill-rule="evenodd" fill="#59f" d="M1330.3 919.32c-7.63 6.95-14.3 11.8-19.3 17.46-8.3 9.36-7.67 14.1-8.76 33.1-.76 51.6 2.98 105.38 5.72 154.75 26.72 15.5 49.95 19.42 88.68 15.05 13.1-18.9 6.67-65.92 19.75-75.72.82-1.02 3.96-3.4 5.13-4.17 5.16-3.45 11.16-3.12 18.63-2.74 17.23.87 18.43 5.83 24.4 19.34 5.82 19.72 10.58 56 2.1 69.12 17.92-2.28 86.6 9.36 88.36-1.02 9.64-24.5 6.73-46.96 10.56-74.2 4.6-45.6 3.86-41.28 5.45-57.06 1.58-15.55 7.85-41.86 8.47-65.35-8.43-17.55-37-21-39-43.25-2.67-35.2-9.7-84.1-15.85-118.65-.55-12.6-27.35-15.64-22.3-2.92.65 1.62 1.88 2.9 2.3 5.4 3.92 22.3 4.18 56.5 5.23 79 1.93 17.85-5.7 12.82-38.1 14.23-36.98.2-68.14.77-105.1.96-13.78.72-12.85-7.7-13.13-17.68-.54-19.2 1.94-52 1-76.7-6.48-1.92-15.45-4.64-20.7-6.16"/><path fill="#b3b3b3" d="M1302.9 1132.4c2.43-38.47 115.4-46.65 108.96 7.18-.15 2.86 1.58 13.88-3.22 14.75-17.37 3.16-98.82 1.7-102.9-.07-4.7-2.02-3.06-14.23-2.84-21.86z"/><path fill="#80b3ff" d="M1506.5 914.27c-36.8-.74-110.64 3.7-144.93-3.74-5.33-1.16-4.2-3.07-3.15-5.23-2.5-1.84 109.07-7.95 148.72.28 9.54 1.98 13.44 5.35-.64 8.7z"/><path fill="#4d4d4d" d="M1506.5 910.27c-36.8-.26-110.64 1.28-144.93-1.3-5.33-.4-4.2-1.06-3.15-1.8-2.5-.65 109.07-2.76 148.72.1 9.54.68 13.44 1.84-.64 3z"/><path fill="#4d4d4d" d="M1516 908.98c.17 4.48 2.54 13.27.37 17.66-.34.7-1 .6-1.77.56-.6.36-4-12.95-1.6-18 .57-1.23 1.7-1.82 3-.22z"/><path opacity=".74" fill-rule="evenodd" fill="url(#I)" d="M1353 856h-21.34c.73-24.8 1.55-49.6 2.18-74.4 6.24 3.07 12.7 5.6 20.86 8.4-.02 20.1-1.52 44.07-1.7 66z"/><path fill-rule="evenodd" fill="url(#J)" d="M1509.2 847.6c-1.2-28.93-2.27-56.83-6.94-65.35l13.75-6.52c.38.54 7.23 1.66 8.25 7.2 2.7 14.7 7.6 45.56 10.08 65.33l-25.13-.65z"/><path opacity=".36" d="M1382.5 762.4c-.38-3.92 4.5-44.8 11.32-56.47 2.3-3.9 2.7-6.24 6.5-7.97 9.2-4.87 24.75-5.73 35.2.22 2.25 1.8 5.7 5.78 8.82 12.62 1.74 3.8 9.52 42.5 7.47 44.3" transform="matrix(1.3042 0 0 1.1353 -411.47 258.61)" filter="url(#k)" stroke="#06f" stroke-width="2.58" fill="none"/><path opacity=".47" d="M1330.6 748.44c-11-1.56-38.08 5.4-41.03 9.82-.03.03-.34-4.66-.67-8.44-.18-2.13-.34-.83-.6-5.43-1.54-26.46-3.06-80.6-3.77-106.72-.02-.84 45.83 1.1 45.8.27" fill-rule="evenodd" transform="matrix(1.0017 -.0054 .0056 .9775 13.305 384.48)" filter="url(#l)" stroke="#06f" fill="url(#K)"/><path opacity=".53" d="M1331.6 751.34c-11-1.56-34.14 8.2-38.42 14-.92 1.25-1.1-9.64-1.4-13.42-.2-2.13-.37-5.62-.34-10.22.08-13.42-7.17-84.05-8.93-103.66-.07-.84 47.86.75 47.83-.08" fill-rule="evenodd" transform="matrix(-1.0458 -.0054 -.0058 .9773 2915.5 382.49)" filter="url(#m)" stroke="#06f" fill="url(#K)"/><path fill="#80b3ff" d="M1545.6 915.66c8.22 14.12 28.46 18.25 33.93 31.87.15.35-1.47 16.77-2.1 21.13-2.53 17.1-3.57 23.25-4.27 29.1-.3 2.54-27.03-2.1-27.34-2.07-23.7 1.07-47.73-1.72-49.48-26.17-1.75-24.46 25.57-52.8 49.26-53.87z"/><path opacity=".5" fill="url(#L)" d="M1545.6 915.66c8.22 14.12 28.46 18.25 33.93 31.87.15.35-1.47 16.77-2.1 21.13-2.53 17.1-3.57 23.25-4.27 29.1-.3 2.54-27.03-2.1-27.34-2.07-23.7 1.07-47.73-1.72-49.48-26.17-1.75-24.46 25.57-52.8 49.26-53.87z"/><path fill="#80b3ff" d="M1329.9 919.2c-9.7 10.05-23.78 17.9-26.2 30.72-.6 3.04-1.5 15.6-1.35 18.3 1.08 18.36-6.4 29.27 10.37 29.9 2.52.1 18.6-.14 18.9-.13 23.4 1.07 47.17-1.7 48.9-26.17 1.73-24.46-27.2-51.55-50.62-52.63z"/><path opacity=".13" fill="url(#M)" d="M1329.9 919.2c-9.7 10.05-23.78 17.9-26.2 30.72-.6 3.04-1.5 15.6-1.35 18.3 1.08 18.36-6.4 29.27 10.37 29.9 2.52.1 18.6-.14 18.9-.13 23.4 1.07 47.17-1.7 48.9-26.17 1.73-24.46-27.2-51.55-50.62-52.63z"/><path opacity=".33" fill="url(#N)" d="M1302.9 1132.4c2.43-38.47 115.4-46.65 108.96 7.18-.15 2.86 1.58 13.88-3.22 14.75-17.37 3.16-98.82 1.7-102.9-.07-4.7-2.02-3.06-14.23-2.84-21.86z"/><path fill="url(#O)" d="M1302.9 1132.4c2.43-38.47 115.4-46.65 108.96 7.18-.15 2.86 1.58 13.88-3.22 14.75-17.37 3.16-98.82 1.7-102.9-.07-4.7-2.02-3.06-14.23-2.84-21.86z"/><path fill="url(#P)" d="M1302.9 1132.4c2.43-38.47 115.4-46.65 108.96 7.18-.15 2.86 1.58 13.88-3.22 14.75-17.37 3.16-98.82 1.7-102.9-.07-4.7-2.02-3.06-14.23-2.84-21.86z"/><path fill="url(#Q)" d="M1302.9 1132.4c2.43-38.47 115.4-46.65 108.96 7.18-.15 2.86 1.58 13.88-3.22 14.75-17.37 3.16-98.82 1.7-102.9-.07-4.7-2.02-3.06-14.23-2.84-21.86z"/><path d="M1288.2 759.1c22.32-19.68 72.6-23 96-4.24" transform="matrix(.9618 0 0 1.0354 71.07 331.83)" filter="url(#n)" stroke="#0055d4" fill="none"/><path stroke="#006680" stroke-width="3.53" fill="none" d="M1342.8 1105.1l5.1 18.08"/><path stroke="#006680" stroke-width="3" fill="none" d="M1372.1 1122.6l-23.93-1.95 25.17-4.74-28.94-8.6"/><path stroke="#006680" stroke-width="3" fill="none" d="M1373.2 1108.8l-28.82 5.05 25.6 8.04"/><path stroke="#006680" stroke-width="3.54" fill="none" d="M1373.7 1106.1l-2.78 18.32"/><path stroke="#006680" stroke-width="2.94" fill="none" d="M1364.1 1106c-.28-.1 5.66.5 15.25-.65 5.14-.7 2.1-4.22-3.15-5.03-8.75-1.3-14.76 1.52-16.16 2.92-1 1.23 1.04 2.06 4.06 2.76z"/><path stroke="#006680" stroke-width="2.14" fill="none" d="M1354.4 1102.1c.27.12-5.57-1.35-15.07-1.98-5.1-.28-2.25 3.15 2.9 4.7 8.6 2.5 14.64 1.17 16.08.24 1.04-.86-.95-1.88-3.9-2.96z"/><path stroke="#006680" stroke-width="2.02" fill="none" d="M1336.9 1089.8l21.9 12.75 16.63-11.18"/><path d="M1412.6 1154.3l-110.7-.24c-5.88-5.46-4.8-16.9 2.06-20.95 45.87 1.46 65.7 2.8 102.7 0 5.25.27 7.94 1.8 9.05 4.15 1.54 8.33-.33 16.04-3.1 17.05z" fill-rule="evenodd" stroke="#045" stroke-width="1.03" fill="url(#R)"/><rect ry="0" rx="53.17" transform="scale(1 -1)" height="7.87" width="117.26" y="-1148.5" x="1298.5" fill="#5c858f"/><path fill="#b3b3b3" d="M1464.9 1132.4c2.43-38.47 115.4-46.65 108.96 7.18-.15 2.86 1.58 13.88-3.22 14.75-17.37 3.16-98.82 1.7-102.9-.07-4.7-2.02-3.06-14.23-2.84-21.86z"/><path opacity=".33" fill="url(#S)" d="M1464.9 1132.4c2.43-38.47 115.4-46.65 108.96 7.18-.15 2.86 1.58 13.88-3.22 14.75-17.37 3.16-98.82 1.7-102.9-.07-4.7-2.02-3.06-14.23-2.84-21.86z"/><path fill="url(#T)" d="M1464.9 1132.4c2.43-38.47 115.4-46.65 108.96 7.18-.15 2.86 1.58 13.88-3.22 14.75-17.37 3.16-98.82 1.7-102.9-.07-4.7-2.02-3.06-14.23-2.84-21.86z"/><path fill="url(#U)" d="M1464.9 1132.4c2.43-38.47 115.4-46.65 108.96 7.18-.15 2.86 1.58 13.88-3.22 14.75-17.37 3.16-98.82 1.7-102.9-.07-4.7-2.02-3.06-14.23-2.84-21.86z"/><path fill="url(#V)" d="M1464.9 1132.4c2.43-38.47 115.4-46.65 108.96 7.18-.15 2.86 1.58 13.88-3.22 14.75-17.37 3.16-98.82 1.7-102.9-.07-4.7-2.02-3.06-14.23-2.84-21.86z"/><path d="M1288.2 759.1c22.32-19.68 72.6-23 96-4.24" transform="matrix(.9618 0 0 1.0354 233.07 331.83)" filter="url(#n)" stroke="#0055d4" fill="none"/><path stroke="#006680" stroke-width="3.53" fill="none" d="M1504.8 1105.1l5.1 18.08"/><path stroke="#006680" stroke-width="3" fill="none" d="M1534.1 1122.6l-23.93-1.95 25.17-4.74-28.94-8.6"/><path stroke="#006680" stroke-width="3" fill="none" d="M1535.2 1108.8l-28.82 5.05 25.6 8.04"/><path stroke="#006680" stroke-width="3.54" fill="none" d="M1535.7 1106.1l-2.78 18.32"/><path stroke="#006680" stroke-width="2.94" fill="none" d="M1526.1 1106c-.28-.1 5.66.5 15.25-.65 5.14-.7 2.1-4.22-3.15-5.03-8.75-1.3-14.76 1.52-16.16 2.92-1 1.23 1.04 2.06 4.06 2.76z"/><path stroke="#006680" stroke-width="2.14" fill="none" d="M1516.4 1102.1c.27.12-5.57-1.35-15.07-1.98-5.1-.28-2.25 3.15 2.9 4.7 8.6 2.5 14.64 1.17 16.08.24 1.04-.86-.95-1.88-3.9-2.96z"/><path stroke="#006680" stroke-width="2.02" fill="none" d="M1498.9 1089.8l21.9 12.75 16.63-11.18"/><path d="M1574.6 1154.3l-110.7-.24c-5.88-5.46-4.8-16.9 2.06-20.95 45.87 1.46 65.7 2.8 102.7 0 5.25.27 7.94 1.8 9.05 4.15 1.54 8.33-.33 16.04-3.1 17.05z" fill-rule="evenodd" stroke="#045" stroke-width="1.03" fill="url(#W)"/><rect transform="scale(1 -1)" rx="53.17" ry="0" height="7.87" width="117.26" y="-1148.5" x="1460.5" fill="#5c858f"/></g><g transform="matrix(.819 0 0 .819 -2276.218 -85.994)"><rect ry="59.27" rx="65.96" transform="rotate(-36.498)" height="118.54" width="131.92" y="1867.4" x="2192.1" fill="#ff7f2a"/><rect ry="30.52" rx="33.96" transform="rotate(-36.498)" height="61.03" width="67.92" y="1902.4" x="2223.1" fill="#999"/><rect ry="30.52" rx="33.96" transform="rotate(-36.498)" height="61.03" width="67.92" y="1902.2" x="2223.4" fill="url(#X)"/><path opacity=".66" fill="url(#Y)" d="M2925.9 158.1c-29.38 21.73-37.3 60.44-17.76 86.84s58.9 30.17 88.26 8.43 37.3-60.5 17.77-86.9c-19.53-26.38-58.9-30.12-88.27-8.38zm20.07 28.37c15.12-11.2 35.4-9.25 45.46 4.34s5.96 33.54-9.16 44.73c-15.13 11.2-35.37 9.26-45.43-4.33s-6-33.54 9.13-44.73z"/><rect ry="59.27" rx="65.96" transform="rotate(-2.405)" height="118.54" width="131.92" y="249.22" x="3084.5" fill="#ff7f2a"/><rect ry="30.52" rx="33.96" transform="rotate(-2.405)" height="61.03" width="67.92" y="284.23" x="3115.5" fill="#999"/><rect ry="30.52" rx="33.96" transform="rotate(-2.405)" height="61.03" width="67.92" y="283.98" x="3115.7" fill="url(#Z)"/><path opacity=".66" fill="url(#aa)" d="M3158.1 116.8c-36.5 1.53-64.77 29.16-63.4 61.97 1.38 32.8 31.87 58 68.37 56.46 36.5-1.54 64.8-29.2 63.43-62-1.38-32.8-31.9-57.96-68.4-56.43zm.7 34.75c18.8-.8 34.52 12.2 35.23 29.08.7 16.9-13.86 31.1-32.66 31.9-18.8.8-34.48-12.16-35.2-29.05-.7-16.9 13.84-31.14 32.64-31.93z"/><path fill="#ff7f2a" d="M3047.5 168.35c34.6-7.14 68.55-5.3 98.7 3.76.14.06.3.1.46.15 15 4.56 29.04 10.9 41.74 18.85 33.12 20.7 57.12 52.12 65.04 90.5 17.08 82.76-47.27 165.5-144.28 185.52-97 20.02-188.86-30.5-205.94-113.25-17.08-82.76 47.26-165.5 144.28-185.52z"/><path fill="url(#ab)" d="M3028.6 343.3c52.67 18.55 87.2 2.9 131.15-7.97 51.76-12.8 84.5 1.64 92.58 5.68-13.12 54.55-64.9 116.75-162.22 129-97.33 12.22-163.22-43.94-178.6-85.96-15.36-42.02 43.03-58.5 117.1-40.74z"/><path opacity=".43" d="M1338.5-113.48c9.88-10.84 37.3-10 46.35-2.8 5-13.8 19.33-20.26 25.54-20.42 10.9-.28 23.86 6.05 30.06 11.63 34.3 30.85 20.62 89.65-10.48 105.12-20.96 10.43-56.55 39.77-67.45 5.5-8.78-27.6-52.84-66.87-24.03-99.03z" filter="url(#o)" fill="#4d4d4d" transform="matrix(.9872 -.0415 .043 1.0263 1715.1 415.44)"/><path fill="#b3b3b3" d="M3030.23 243.7c9.42-11.25 31.08-10.35 43.1 6.1-1.17-20.6 17.6-30.03 23.78-30.46 10.9-.74 21.02-.86 33.1 11 26.07 25.53 27.9 76.12-2.47 106.3-16.45 16.32-46.7 33.6-72.75 8.04s-52.18-67.65-24.75-101z"/><path fill="url(#ac)" d="M1342-116.4c9.88-10.84 31.48-9.02 42.8 7.9-.3-20.6 18.83-29.25 25.04-29.42 10.9-.28 21.03.03 32.6 12.37 24.97 26.62 24.67 77.24-6.93 106.1-17.1 15.63-48.05 31.6-73.02 5s-49.3-69.8-20.48-101.95z" transform="rotate(-2.404 10762.355 -40149.393)"/><path opacity=".72" fill="url(#ad)" d="M1342-116.4c9.88-10.84 31.48-9.02 42.8 7.9-.3-20.6 18.83-29.25 25.04-29.42 10.9-.28 21.03.03 32.6 12.37 24.97 26.62 24.67 77.24-6.93 106.1-17.1 15.63-48.05 31.6-73.02 5s-49.3-69.8-20.48-101.95z" transform="rotate(-2.404 10762.355 -40149.393)"/><rect opacity=".37" ry="44.25" rx="178.8" transform="rotate(-2.404 3140.168 -39987.53)" height="44.25" filter="url(#p)" width="102" y="298.61" x="1367.5" fill="gray"/><rect ry="24.88" rx="35.63" transform="rotate(-2.405)" height="24.88" width="20.33" y="440.52" x="3052.3" fill="#502d16"/><rect ry="24.88" rx="35.63" transform="rotate(-2.405)" height="24.88" width="20.33" y="438.4" x="3084.5" fill="#502d16"/><rect ry="41" rx="178.8" transform="rotate(-2.405)" height="41" width="102" y="463.4" x="3038.3" fill="url(#ae)"/><rect ry="24.88" rx="35.63" transform="rotate(-2.405)" height="24.88" width="20.33" y="440.52" x="3052.3" fill="url(#af)"/><rect opacity=".96" ry="9.01" rx="12.9" transform="rotate(-6.8)" height="9.01" width="7.36" y="682.31" x="3014.2" fill="url(#ag)"/><rect opacity=".96" transform="rotate(-6.8)" rx="12.9" ry="9.01" height="9.01" width="7.36" y="682.42" x="3047.9" fill="url(#ah)"/><path stroke="#4d4d4d" stroke-width="5" fill="none" d="M3100.9 438.28c1.52 15.55 18.33 14.92 18.63-1.3"/></g></svg>